<svg width="20" height="20" viewBox="0 0 20 20" fill="none" xmlns="http://www.w3.org/2000/svg">
<path d="M9.99998 0.0833282C10.232 0.0833282 10.4546 0.175515 10.6187 0.33961C10.7828 0.503704 10.875 0.726264 10.875 0.958328V2.125C10.875 2.35706 10.7828 2.57962 10.6187 2.74371C10.4546 2.90781 10.232 3 9.99998 3C9.76792 3 9.54536 2.90781 9.38126 2.74371C9.21717 2.57962 9.12498 2.35706 9.12498 2.125V0.958328C9.12498 0.726264 9.21717 0.503704 9.38126 0.33961C9.54536 0.175515 9.76792 0.0833282 9.99998 0.0833282ZM9.99998 15.8333C11.5471 15.8333 13.0308 15.2187 14.1248 14.1248C15.2187 13.0308 15.8333 11.5471 15.8333 10C15.8333 8.4529 15.2187 6.96917 14.1248 5.87521C13.0308 4.78124 11.5471 4.16666 9.99998 4.16666C8.45288 4.16666 6.96915 4.78124 5.87519 5.87521C4.78123 6.96917 4.16665 8.4529 4.16665 10C4.16665 11.5471 4.78123 13.0308 5.87519 14.1248C6.96915 15.2187 8.45288 15.8333 9.99998 15.8333ZM9.99998 14.0833C9.46375 14.0833 8.93277 13.9777 8.43736 13.7725C7.94194 13.5673 7.4918 13.2665 7.11263 12.8873C6.73346 12.5082 6.43268 12.058 6.22747 11.5626C6.02227 11.0672 5.91665 10.5362 5.91665 10C5.91665 9.46377 6.02227 8.93279 6.22747 8.43737C6.43268 7.94196 6.73346 7.49182 7.11263 7.11264C7.4918 6.73347 7.94194 6.43269 8.43736 6.22749C8.93277 6.02228 9.46375 5.91666 9.99998 5.91666C11.0829 5.91666 12.1216 6.34687 12.8873 7.11264C13.6531 7.87842 14.0833 8.91703 14.0833 10C14.0833 11.083 13.6531 12.1216 12.8873 12.8873C12.1216 13.6531 11.0829 14.0833 9.99998 14.0833ZM19.0416 10.875C19.2737 10.875 19.4963 10.7828 19.6604 10.6187C19.8245 10.4546 19.9166 10.2321 19.9166 10C19.9166 9.76793 19.8245 9.54537 19.6604 9.38128C19.4963 9.21718 19.2737 9.125 19.0416 9.125H17.875C17.6429 9.125 17.4204 9.21718 17.2563 9.38128C17.0922 9.54537 17 9.76793 17 10C17 10.2321 17.0922 10.4546 17.2563 10.6187C17.4204 10.7828 17.6429 10.875 17.875 10.875H19.0416ZM9.99998 17C10.232 17 10.4546 17.0922 10.6187 17.2563C10.7828 17.4204 10.875 17.6429 10.875 17.875V19.0417C10.875 19.2737 10.7828 19.4963 10.6187 19.6604C10.4546 19.8245 10.232 19.9167 9.99998 19.9167C9.76792 19.9167 9.54536 19.8245 9.38126 19.6604C9.21717 19.4963 9.12498 19.2737 9.12498 19.0417V17.875C9.12498 17.6429 9.21717 17.4204 9.38126 17.2563C9.54536 17.0922 9.76792 17 9.99998 17ZM2.12498 10.875C2.35704 10.875 2.5796 10.7828 2.7437 10.6187C2.90779 10.4546 2.99998 10.2321 2.99998 10C2.99998 9.76793 2.90779 9.54537 2.7437 9.38128C2.5796 9.21718 2.35704 9.125 2.12498 9.125H0.958313C0.726249 9.125 0.503689 9.21718 0.339594 9.38128C0.1755 9.54537 0.083313 9.76793 0.083313 10C0.083313 10.2321 0.1755 10.4546 0.339594 10.6187C0.503689 10.7828 0.726249 10.875 0.958313 10.875H2.12498ZM3.25665 3.25666C3.42071 3.0928 3.6431 3.00077 3.87498 3.00077C4.10686 3.00077 4.32925 3.0928 4.49331 3.25666L5.07665 3.84C5.23121 4.00587 5.31535 4.22525 5.31135 4.45194C5.30735 4.67862 5.21552 4.89491 5.05521 5.05522C4.89489 5.21554 4.67861 5.30737 4.45192 5.31137C4.22524 5.31537 4.00585 5.23122 3.83998 5.07666L3.25665 4.49333C3.09279 4.32927 3.00075 4.10687 3.00075 3.875C3.00075 3.64312 3.09279 3.42072 3.25665 3.25666ZM4.49331 16.7433C4.32744 16.8979 4.10806 16.982 3.88137 16.978C3.65469 16.974 3.4384 16.8822 3.27809 16.7219C3.11777 16.5616 3.02594 16.3453 3.02194 16.1186C3.01794 15.8919 3.10209 15.6725 3.25665 15.5067L3.83998 14.9233C4.00585 14.7688 4.22524 14.6846 4.45192 14.6886C4.67861 14.6926 4.89489 14.7845 5.05521 14.9448C5.21552 15.1051 5.30735 15.3214 5.31135 15.5481C5.31535 15.7747 5.23121 15.9941 5.07665 16.16L4.49331 16.7433ZM16.7433 3.25666C16.5793 3.0928 16.3569 3.00077 16.125 3.00077C15.8931 3.00077 15.6707 3.0928 15.5066 3.25666L14.9233 3.84C14.7688 4.00587 14.6846 4.22525 14.6886 4.45194C14.6926 4.67862 14.7844 4.89491 14.9448 5.05522C15.1051 5.21554 15.3214 5.30737 15.548 5.31137C15.7747 5.31537 15.9941 5.23122 16.16 5.07666L16.7433 4.49333C16.9072 4.32927 16.9992 4.10687 16.9992 3.875C16.9992 3.64312 16.9072 3.42072 16.7433 3.25666ZM15.5066 16.7433C15.5868 16.8293 15.6834 16.8983 15.7907 16.9461C15.898 16.9939 16.0139 17.0196 16.1314 17.0217C16.2489 17.0238 16.3656 17.0021 16.4745 16.9581C16.5835 16.9141 16.6824 16.8486 16.7655 16.7655C16.8486 16.6825 16.9141 16.5835 16.9581 16.4745C17.0021 16.3656 17.0237 16.2489 17.0217 16.1314C17.0196 16.0139 16.9939 15.898 16.9461 15.7907C16.8982 15.6834 16.8293 15.5868 16.7433 15.5067L16.16 14.9233C16.0799 14.8374 15.9833 14.7684 15.8759 14.7206C15.7686 14.6728 15.6527 14.647 15.5353 14.645C15.4178 14.6429 15.3011 14.6645 15.1921 14.7085C15.0832 14.7525 14.9842 14.818 14.9011 14.9011C14.818 14.9842 14.7525 15.0832 14.7085 15.1921C14.6645 15.3011 14.6429 15.4178 14.645 15.5353C14.647 15.6528 14.6727 15.7686 14.7206 15.876C14.7684 15.9833 14.8373 16.0799 14.9233 16.16L15.5066 16.7433Z" fill="#55585F"/>
</svg>
