<svg width="20" height="19" viewBox="0 0 20 19" fill="none" xmlns="http://www.w3.org/2000/svg">
<path d="M16.4674 13.6973C14.1146 17.0444 9.26602 17.7073 5.66265 15.1745C2.05929 12.6416 1.04122 7.85497 3.39398 4.50782C3.57537 4.24976 3.7731 4.00319 3.99001 3.78144C4.73593 6.47169 6.45327 8.92623 8.86368 10.6205C11.2741 12.3148 14.1651 13.0996 16.949 12.8905C16.8138 13.1697 16.6488 13.4392 16.4674 13.6973ZM18.1016 14.846C19.0726 13.4646 19.5763 11.8796 19.666 10.2757C16.6573 11.5514 12.9539 11.2276 9.93069 9.10256C6.90746 6.97749 5.34878 3.60253 5.53039 0.339539C4.05161 0.967065 2.73078 1.97777 1.7598 3.35913C-1.18515 7.54876 0.085314 13.5221 4.59565 16.6925C9.10598 19.8628 15.1566 19.0356 18.1016 14.846Z" fill="#E7E7E9"/>
</svg>
